<svg xmlns="http://www.w3.org/2000/svg" viewBox="0 0 679.348 206.141"><defs><clipPath id="a" clipPathUnits="userSpaceOnUse"><path d="M-257.518 302.039H601.38v-612.288h-858.897z"/></clipPath><clipPath id="b" clipPathUnits="userSpaceOnUse"><path d="M-329.555 301.38h858.897v-612.287h-858.897Z"/></clipPath><clipPath id="c" clipPathUnits="userSpaceOnUse"><path d="M-368.815 302.039h858.897v-612.288h-858.897Z"/></clipPath><clipPath id="d" clipPathUnits="userSpaceOnUse"><path d="M-420.23 302.039h858.896v-612.288H-420.23Z"/></clipPath><clipPath id="e" clipPathUnits="userSpaceOnUse"><path d="M-457.03 301.38h858.897v-612.287H-457.03Z"/></clipPath><clipPath id="f" clipPathUnits="userSpaceOnUse"><path d="M-496.29 302.039h858.898v-612.288H-496.29Z"/></clipPath><clipPath id="g" clipPathUnits="userSpaceOnUse"><path d="M-555.51 334.568h858.896V-277.72H-555.51Z"/></clipPath><clipPath id="h" clipPathUnits="userSpaceOnUse"><path d="M-222.507 225.484H636.39v-612.288h-858.897z"/></clipPath><clipPath id="i" clipPathUnits="userSpaceOnUse"><path d="M-187.417 282.879H671.48V-329.41h-858.897z"/></clipPath><clipPath id="j" clipPathUnits="userSpaceOnUse"><path d="M-231.158 333.984h858.897v-612.288h-858.897Z"/></clipPath><clipPath id="k" clipPathUnits="userSpaceOnUse"><path d="M-287.93 241.116h858.896v-612.288H-287.93Z"/></clipPath><clipPath id="l" clipPathUnits="userSpaceOnUse"><path d="M-591.123 302.618h858.897V-309.67h-858.897z"/></clipPath><clipPath id="m" clipPathUnits="userSpaceOnUse"><path d="M-636.17 302.618h858.896V-309.67H-636.17Z"/></clipPath></defs><g fill="#0270ad"><path d="M0 0c0 2.219 1.15 3.451 3.367 3.451h16.512c17.99 0 29.736-10.68 29.736-29.08S37.869-54.873 19.879-54.873H3.367C1.15-54.873 0-53.723 0-51.422Zm19.304-45.754c11.829 0 19.385 6.981 19.385 20.125 0 12.979-7.72 19.963-19.385 19.963h-8.789v-40.088z" clip-path="url(#a)" transform="matrix(1.33333 0 0 -1.33333 112.019 130.99)"/><path d="M0 0c.657 1.889 1.891 2.793 3.861 2.793h5.257c1.972 0 3.286-.904 3.861-2.793l18.236-51.588c.821-2.381-.246-3.943-2.793-3.943h-3.777c-1.973 0-3.288.904-3.862 2.793L16.676-40.58H-3.779l-4.026-12.076c-.574-1.971-1.888-2.875-3.86-2.875h-3.778c-2.547 0-3.616 1.562-2.793 3.943zm14.047-31.955L8.872-16.346c-.985 3.285-2.3 9.035-2.3 9.035h-.165s-1.314-5.75-2.3-9.035L-1.15-31.955Z" clip-path="url(#b)" transform="matrix(1.33333 0 0 -1.33333 208.069 130.113)"/><path d="M0 0c0 2.219 1.15 3.451 3.369 3.451h15.772c5.75 0 8.625-.492 11.088-1.56 5.916-2.465 9.777-8.051 9.777-15.936 0-6.9-3.614-13.473-9.693-15.937v-.164s.74-.905 1.888-3.04l9.612-17.58c1.396-2.38.327-4.107-2.382-4.107h-4.437c-1.889 0-3.119.74-4.025 2.383L20.701-33.105H10.516v-18.317c0-2.301-1.151-3.451-3.37-3.451H3.369C1.15-54.873 0-53.723 0-51.422Zm20.043-23.904c5.668 0 9.201 3.533 9.201 9.283 0 3.697-1.396 6.654-4.599 7.967-1.397.66-3.205.988-6.327.988h-7.802v-18.238z" clip-path="url(#c)" transform="matrix(1.33333 0 0 -1.33333 260.415 130.99)"/><path d="M0 0c0 2.219 1.151 3.451 3.368 3.451h3.78c2.218 0 3.368-1.232 3.368-3.451v-51.422c0-2.301-1.15-3.451-3.368-3.451h-3.78C1.151-54.873 0-53.723 0-51.422z" clip-path="url(#d)" transform="matrix(1.33333 0 0 -1.33333 328.97 130.99)"/><path d="M0 0c.656 1.889 1.89 2.793 3.861 2.793h5.256c1.974 0 3.288-.904 3.861-2.793l18.236-51.588c.821-2.381-.246-3.943-2.793-3.943h-3.777c-1.971 0-3.286.904-3.861 2.793L16.677-40.58H-3.778l-4.027-12.076c-.573-1.971-1.887-2.875-3.858-2.875h-3.781c-2.545 0-3.614 1.562-2.791 3.943zm14.046-31.955L8.871-16.346c-.985 3.285-2.3 9.035-2.3 9.035h-.164s-1.314-5.75-2.3-9.035l-5.256-15.609z" clip-path="url(#e)" transform="matrix(1.33333 0 0 -1.33333 378.036 130.113)"/><path d="M0 0c0 2.219 1.15 3.451 3.367 3.451h3.78c2.218 0 3.368-1.232 3.368-3.451v-21.275h26.696V0c0 2.219 1.151 3.451 3.451 3.451h3.697c2.219 0 3.368-1.232 3.368-3.451v-51.422c0-2.301-1.149-3.451-3.368-3.451h-3.697q-3.45 0-3.451 3.451v21.029H10.515v-21.029c0-2.301-1.15-3.451-3.368-3.451h-3.78C1.15-54.873 0-53.723 0-51.422Z" clip-path="url(#f)" transform="matrix(1.33333 0 0 -1.33333 430.38 130.99)"/><path d="M0 0v2.301c0 2.217 1.231 3.367 3.451 3.367h17.823c2.221 0 3.454-1.15 3.454-3.367V0c0-2.299-1.233-3.449-3.454-3.449H3.451C1.231-3.449 0-2.299 0 0" clip-path="url(#g)" transform="matrix(1.33333 0 0 -1.33333 509.343 174.363)"/><path d="M0 0c0 10.174 13.099 16.463 21.722 21.688 6.775-4.125 22.577-11.59 22.58-22.296.004-11.884-4.944-31.255-8.877-31.339-4.279-.094-10.192 24.551-13.338 24.487-3.145-.066-9-24.587-12.947-24.581C4.854-32.035 0-11.073 0 0" clip-path="url(#h)" transform="matrix(1.33333 0 0 -1.33333 65.338 28.917)"/><path d="M0 0c-9.676 3.146-11.608 17.547-13.913 27.361 6.017 5.17 18 17.892 28.184 14.587 11.302-3.67 28.197-14.358 27.06-18.128-1.23-4.097-26.499-2.105-27.408-5.117-.912-3.012 20.6-16.158 19.375-19.912C31.968-5.279 10.532-3.42 0 0" clip-path="url(#i)" transform="matrix(1.33333 0 0 -1.33333 18.55 105.443)"/><path d="M0 0c-5.982-8.229-20.272-5.617-30.32-4.779-3.058 7.32-11.452 22.65-5.164 31.312C-28.5 36.148-13.113 48.91-9.882 46.668c3.517-2.436-6.186-25.852-3.6-27.648 2.582-1.799 21.734 14.599 24.923 12.273C14.902 28.771 6.51 8.959 0 0" clip-path="url(#j)" transform="matrix(1.33333 0 0 -1.33333 76.873 173.584)"/><path d="M0 0c9.679 3.144 19.706-7.37 27.341-13.958-1.83-7.717-4.046-25.053-14.227-28.363-11.302-3.678-31.253-4.959-32.549-1.244-1.413 4.041 20.2 17.283 19.166 20.253-1.032 2.971-26.166.961-27.378 4.717C-28.966-14.515-10.528-3.423 0 0" clip-path="url(#k)" transform="matrix(1.33333 0 0 -1.33333 152.57 49.76)"/><path d="M0 0c0 2.215 1.146 3.446 3.363 3.446h28.056c2.214 0 3.446-1.231 3.446-3.446v-2.297c0-2.215-1.232-3.364-3.446-3.364H10.5v-15.258h16.243c2.215 0 3.446-1.148 3.446-3.363v-2.297c0-2.298-1.231-3.446-3.446-3.446H10.5v-15.668h22.23c2.218 0 3.447-1.149 3.447-3.364v-2.297c0-2.298-1.229-3.446-3.447-3.446H3.363C1.146-54.8 0-53.652 0-51.354Z" clip-path="url(#l)" transform="matrix(1.33333 0 0 -1.33333 556.826 131.762)"/><path d="M0 0c0 2.215 1.149 3.446 3.363 3.446h3.695C9.354 3.446 10.5 2.215 10.5 0v-33.799c0-7.875 5.089-12.305 12.88-12.305 7.795 0 12.963 4.43 12.963 12.305V0c0 2.215 1.149 3.446 3.363 3.446h3.773c2.216 0 3.364-1.231 3.364-3.446v-33.881c0-13.044-9.351-21.903-23.381-21.903C9.354-55.784 0-46.925 0-33.881Z" clip-path="url(#m)" transform="matrix(1.33333 0 0 -1.33333 616.89 131.762)"/></g></svg>