<svg xmlns="http://www.w3.org/2000/svg" viewBox="0 0 430 430"><rect fill="white" width="430" height="430"/><path fill="black" d="M10,10h10v10h-10zM20,10h10v10h-10zM30,10h10v10h-10zM40,10h10v10h-10zM50,10h10v10h-10zM60,10h10v10h-10zM70,10h10v10h-10zM90,10h10v10h-10zM110,10h10v10h-10zM130,10h10v10h-10zM160,10h10v10h-10zM170,10h10v10h-10zM180,10h10v10h-10zM210,10h10v10h-10zM220,10h10v10h-10zM230,10h10v10h-10zM240,10h10v10h-10zM250,10h10v10h-10zM270,10h10v10h-10zM300,10h10v10h-10zM310,10h10v10h-10zM330,10h10v10h-10zM350,10h10v10h-10zM360,10h10v10h-10zM370,10h10v10h-10zM380,10h10v10h-10zM390,10h10v10h-10zM400,10h10v10h-10zM410,10h10v10h-10zM10,20h10v10h-10zM70,20h10v10h-10zM100,20h10v10h-10zM110,20h10v10h-10zM120,20h10v10h-10zM150,20h10v10h-10zM170,20h10v10h-10zM190,20h10v10h-10zM210,20h10v10h-10zM220,20h10v10h-10zM230,20h10v10h-10zM240,20h10v10h-10zM250,20h10v10h-10zM260,20h10v10h-10zM270,20h10v10h-10zM290,20h10v10h-10zM300,20h10v10h-10zM310,20h10v10h-10zM330,20h10v10h-10zM350,20h10v10h-10zM410,20h10v10h-10zM10,30h10v10h-10zM30,30h10v10h-10zM40,30h10v10h-10zM50,30h10v10h-10zM70,30h10v10h-10zM90,30h10v10h-10zM130,30h10v10h-10zM140,30h10v10h-10zM150,30h10v10h-10zM160,30h10v10h-10zM190,30h10v10h-10zM240,30h10v10h-10zM260,30h10v10h-10zM310,30h10v10h-10zM350,30h10v10h-10zM370,30h10v10h-10zM380,30h10v10h-10zM390,30h10v10h-10zM410,30h10v10h-10zM10,40h10v10h-10zM30,40h10v10h-10zM40,40h10v10h-10zM50,40h10v10h-10zM70,40h10v10h-10zM90,40h10v10h-10zM160,40h10v10h-10zM170,40h10v10h-10zM180,40h10v10h-10zM230,40h10v10h-10zM250,40h10v10h-10zM260,40h10v10h-10zM270,40h10v10h-10zM280,40h10v10h-10zM290,40h10v10h-10zM330,40h10v10h-10zM350,40h10v10h-10zM370,40h10v10h-10zM380,40h10v10h-10zM390,40h10v10h-10zM410,40h10v10h-10zM10,50h10v10h-10zM30,50h10v10h-10zM40,50h10v10h-10zM50,50h10v10h-10zM70,50h10v10h-10zM90,50h10v10h-10zM100,50h10v10h-10zM110,50h10v10h-10zM120,50h10v10h-10zM140,50h10v10h-10zM150,50h10v10h-10zM160,50h10v10h-10zM190,50h10v10h-10zM200,50h10v10h-10zM220,50h10v10h-10zM250,50h10v10h-10zM270,50h10v10h-10zM280,50h10v10h-10zM290,50h10v10h-10zM320,50h10v10h-10zM330,50h10v10h-10zM350,50h10v10h-10zM370,50h10v10h-10zM380,50h10v10h-10zM390,50h10v10h-10zM410,50h10v10h-10zM10,60h10v10h-10zM70,60h10v10h-10zM120,60h10v10h-10zM200,60h10v10h-10zM210,60h10v10h-10zM220,60h10v10h-10zM250,60h10v10h-10zM320,60h10v10h-10zM350,60h10v10h-10zM410,60h10v10h-10zM10,70h10v10h-10zM20,70h10v10h-10zM30,70h10v10h-10zM40,70h10v10h-10zM50,70h10v10h-10zM60,70h10v10h-10zM70,70h10v10h-10zM90,70h10v10h-10zM110,70h10v10h-10zM130,70h10v10h-10zM150,70h10v10h-10zM170,70h10v10h-10zM190,70h10v10h-10zM210,70h10v10h-10zM230,70h10v10h-10zM250,70h10v10h-10zM270,70h10v10h-10zM290,70h10v10h-10zM310,70h10v10h-10zM330,70h10v10h-10zM350,70h10v10h-10zM360,70h10v10h-10zM370,70h10v10h-10zM380,70h10v10h-10zM390,70h10v10h-10zM400,70h10v10h-10zM410,70h10v10h-10zM100,80h10v10h-10zM110,80h10v10h-10zM120,80h10v10h-10zM180,80h10v10h-10zM200,80h10v10h-10zM230,80h10v10h-10zM240,80h10v10h-10zM270,80h10v10h-10zM290,80h10v10h-10zM300,80h10v10h-10zM310,80h10v10h-10zM320,80h10v10h-10zM330,80h10v10h-10zM10,90h10v10h-10zM20,90h10v10h-10zM30,90h10v10h-10zM40,90h10v10h-10zM70,90h10v10h-10zM90,90h10v10h-10zM110,90h10v10h-10zM130,90h10v10h-10zM170,90h10v10h-10zM190,90h10v10h-10zM200,90h10v10h-10zM210,90h10v10h-10zM220,90h10v10h-10zM240,90h10v10h-10zM250,90h10v10h-10zM290,90h10v10h-10zM310,90h10v10h-10zM320,90h10v10h-10zM330,90h10v10h-10zM340,90h10v10h-10zM370,90h10v10h-10zM380,90h10v10h-10zM390,90h10v10h-10zM410,90h10v10h-10zM40,100h10v10h-10zM60,100h10v10h-10zM80,100h10v10h-10zM100,100h10v10h-10zM130,100h10v10h-10zM140,100h10v10h-10zM150,100h10v10h-10zM160,100h10v10h-10zM170,100h10v10h-10zM210,100h10v10h-10zM230,100h10v10h-10zM240,100h10v10h-10zM260,100h10v10h-10zM270,100h10v10h-10zM310,100h10v10h-10zM330,100h10v10h-10zM350,100h10v10h-10zM360,100h10v10h-10zM370,100h10v10h-10zM400,100h10v10h-10zM40,110h10v10h-10zM70,110h10v10h-10zM100,110h10v10h-10zM110,110h10v10h-10zM140,110h10v10h-10zM170,110h10v10h-10zM210,110h10v10h-10zM240,110h10v10h-10zM250,110h10v10h-10zM270,110h10v10h-10zM300,110h10v10h-10zM310,110h10v10h-10zM370,110h10v10h-10zM390,110h10v10h-10zM400,110h10v10h-10zM60,120h10v10h-10zM80,120h10v10h-10zM90,120h10v10h-10zM110,120h10v10h-10zM130,120h10v10h-10zM170,120h10v10h-10zM210,120h10v10h-10zM260,120h10v10h-10zM270,120h10v10h-10zM320,120h10v10h-10zM360,120h10v10h-10zM370,120h10v10h-10zM400,120h10v10h-10zM410,120h10v10h-10zM10,130h10v10h-10zM30,130h10v10h-10zM40,130h10v10h-10zM60,130h10v10h-10zM70,130h10v10h-10zM80,130h10v10h-10zM110,130h10v10h-10zM150,130h10v10h-10zM180,130h10v10h-10zM200,130h10v10h-10zM230,130h10v10h-10zM250,130h10v10h-10zM260,130h10v10h-10zM270,130h10v10h-10zM330,130h10v10h-10zM340,130h10v10h-10zM370,130h10v10h-10zM390,130h10v10h-10zM20,140h10v10h-10zM30,140h10v10h-10zM40,140h10v10h-10zM110,140h10v10h-10zM120,140h10v10h-10zM150,140h10v10h-10zM170,140h10v10h-10zM180,140h10v10h-10zM200,140h10v10h-10zM230,140h10v10h-10zM250,140h10v10h-10zM270,140h10v10h-10zM280,140h10v10h-10zM290,140h10v10h-10zM300,140h10v10h-10zM320,140h10v10h-10zM350,140h10v10h-10zM380,140h10v10h-10zM400,140h10v10h-10zM410,140h10v10h-10zM10,150h10v10h-10zM20,150h10v10h-10zM40,150h10v10h-10zM60,150h10v10h-10zM70,150h10v10h-10zM90,150h10v10h-10zM110,150h10v10h-10zM130,150h10v10h-10zM140,150h10v10h-10zM150,150h10v10h-10zM170,150h10v10h-10zM180,150h10v10h-10zM190,150h10v10h-10zM200,150h10v10h-10zM220,150h10v10h-10zM230,150h10v10h-10zM260,150h10v10h-10zM290,150h10v10h-10zM320,150h10v10h-10zM330,150h10v10h-10zM340,150h10v10h-10zM350,150h10v10h-10zM370,150h10v10h-10zM380,150h10v10h-10zM390,150h10v10h-10zM400,150h10v10h-10zM410,150h10v10h-10zM10,160h10v10h-10zM40,160h10v10h-10zM80,160h10v10h-10zM100,160h10v10h-10zM130,160h10v10h-10zM160,160h10v10h-10zM210,160h10v10h-10zM220,160h10v10h-10zM230,160h10v10h-10zM280,160h10v10h-10zM330,160h10v10h-10zM340,160h10v10h-10zM400,160h10v10h-10zM20,170h10v10h-10zM40,170h10v10h-10zM60,170h10v10h-10zM70,170h10v10h-10zM80,170h10v10h-10zM90,170h10v10h-10zM100,170h10v10h-10zM110,170h10v10h-10zM120,170h10v10h-10zM160,170h10v10h-10zM170,170h10v10h-10zM180,170h10v10h-10zM190,170h10v10h-10zM200,170h10v10h-10zM210,170h10v10h-10zM220,170h10v10h-10zM230,170h10v10h-10zM240,170h10v10h-10zM260,170h10v10h-10zM300,170h10v10h-10zM310,170h10v10h-10zM330,170h10v10h-10zM340,170h10v10h-10zM360,170h10v10h-10zM370,170h10v10h-10zM380,170h10v10h-10zM400,170h10v10h-10zM40,180h10v10h-10zM60,180h10v10h-10zM130,180h10v10h-10zM140,180h10v10h-10zM150,180h10v10h-10zM180,180h10v10h-10zM200,180h10v10h-10zM210,180h10v10h-10zM230,180h10v10h-10zM240,180h10v10h-10zM250,180h10v10h-10zM270,180h10v10h-10zM280,180h10v10h-10zM320,180h10v10h-10zM330,180h10v10h-10zM380,180h10v10h-10zM400,180h10v10h-10zM410,180h10v10h-10zM40,190h10v10h-10zM50,190h10v10h-10zM70,190h10v10h-10zM80,190h10v10h-10zM160,190h10v10h-10zM190,190h10v10h-10zM210,190h10v10h-10zM220,190h10v10h-10zM230,190h10v10h-10zM250,190h10v10h-10zM260,190h10v10h-10zM270,190h10v10h-10zM280,190h10v10h-10zM290,190h10v10h-10zM310,190h10v10h-10zM360,190h10v10h-10zM380,190h10v10h-10zM20,200h10v10h-10zM30,200h10v10h-10zM50,200h10v10h-10zM80,200h10v10h-10zM90,200h10v10h-10zM130,200h10v10h-10zM160,200h10v10h-10zM170,200h10v10h-10zM180,200h10v10h-10zM190,200h10v10h-10zM250,200h10v10h-10zM300,200h10v10h-10zM310,200h10v10h-10zM350,200h10v10h-10zM370,200h10v10h-10zM380,200h10v10h-10zM390,200h10v10h-10zM10,210h10v10h-10zM30,210h10v10h-10zM60,210h10v10h-10zM70,210h10v10h-10zM100,210h10v10h-10zM110,210h10v10h-10zM140,210h10v10h-10zM170,210h10v10h-10zM180,210h10v10h-10zM190,210h10v10h-10zM220,210h10v10h-10zM240,210h10v10h-10zM270,210h10v10h-10zM310,210h10v10h-10zM320,210h10v10h-10zM340,210h10v10h-10zM350,210h10v10h-10zM390,210h10v10h-10zM400,210h10v10h-10zM20,220h10v10h-10zM40,220h10v10h-10zM80,220h10v10h-10zM100,220h10v10h-10zM150,220h10v10h-10zM160,220h10v10h-10zM170,220h10v10h-10zM200,220h10v10h-10zM210,220h10v10h-10zM220,220h10v10h-10zM230,220h10v10h-10zM240,220h10v10h-10zM290,220h10v10h-10zM300,220h10v10h-10zM320,220h10v10h-10zM330,220h10v10h-10zM340,220h10v10h-10zM350,220h10v10h-10zM360,220h10v10h-10zM370,220h10v10h-10zM380,220h10v10h-10zM410,220h10v10h-10zM30,230h10v10h-10zM70,230h10v10h-10zM80,230h10v10h-10zM100,230h10v10h-10zM170,230h10v10h-10zM190,230h10v10h-10zM230,230h10v10h-10zM240,230h10v10h-10zM270,230h10v10h-10zM300,230h10v10h-10zM340,230h10v10h-10zM350,230h10v10h-10zM380,230h10v10h-10zM390,230h10v10h-10zM400,230h10v10h-10zM10,240h10v10h-10zM30,240h10v10h-10zM40,240h10v10h-10zM50,240h10v10h-10zM60,240h10v10h-10zM90,240h10v10h-10zM100,240h10v10h-10zM110,240h10v10h-10zM120,240h10v10h-10zM130,240h10v10h-10zM140,240h10v10h-10zM160,240h10v10h-10zM170,240h10v10h-10zM190,240h10v10h-10zM200,240h10v10h-10zM240,240h10v10h-10zM250,240h10v10h-10zM260,240h10v10h-10zM280,240h10v10h-10zM320,240h10v10h-10zM330,240h10v10h-10zM340,240h10v10h-10zM370,240h10v10h-10zM380,240h10v10h-10zM400,240h10v10h-10zM10,250h10v10h-10zM20,250h10v10h-10zM40,250h10v10h-10zM50,250h10v10h-10zM70,250h10v10h-10zM110,250h10v10h-10zM120,250h10v10h-10zM130,250h10v10h-10zM150,250h10v10h-10zM160,250h10v10h-10zM170,250h10v10h-10zM210,250h10v10h-10zM230,250h10v10h-10zM250,250h10v10h-10zM260,250h10v10h-10zM270,250h10v10h-10zM280,250h10v10h-10zM300,250h10v10h-10zM310,250h10v10h-10zM380,250h10v10h-10zM390,250h10v10h-10zM410,250h10v10h-10zM20,260h10v10h-10zM40,260h10v10h-10zM50,260h10v10h-10zM60,260h10v10h-10zM80,260h10v10h-10zM90,260h10v10h-10zM100,260h10v10h-10zM120,260h10v10h-10zM130,260h10v10h-10zM140,260h10v10h-10zM170,260h10v10h-10zM180,260h10v10h-10zM190,260h10v10h-10zM200,260h10v10h-10zM210,260h10v10h-10zM250,260h10v10h-10zM270,260h10v10h-10zM280,260h10v10h-10zM290,260h10v10h-10zM300,260h10v10h-10zM310,260h10v10h-10zM340,260h10v10h-10zM350,260h10v10h-10zM360,260h10v10h-10zM380,260h10v10h-10zM390,260h10v10h-10zM10,270h10v10h-10zM30,270h10v10h-10zM70,270h10v10h-10zM80,270h10v10h-10zM90,270h10v10h-10zM100,270h10v10h-10zM110,270h10v10h-10zM150,270h10v10h-10zM170,270h10v10h-10zM190,270h10v10h-10zM200,270h10v10h-10zM220,270h10v10h-10zM230,270h10v10h-10zM250,270h10v10h-10zM260,270h10v10h-10zM270,270h10v10h-10zM300,270h10v10h-10zM320,270h10v10h-10zM330,270h10v10h-10zM370,270h10v10h-10zM400,270h10v10h-10zM410,270h10v10h-10zM40,280h10v10h-10zM90,280h10v10h-10zM100,280h10v10h-10zM110,280h10v10h-10zM130,280h10v10h-10zM140,280h10v10h-10zM170,280h10v10h-10zM190,280h10v10h-10zM210,280h10v10h-10zM220,280h10v10h-10zM230,280h10v10h-10zM240,280h10v10h-10zM310,280h10v10h-10zM320,280h10v10h-10zM330,280h10v10h-10zM380,280h10v10h-10zM400,280h10v10h-10zM10,290h10v10h-10zM40,290h10v10h-10zM50,290h10v10h-10zM70,290h10v10h-10zM90,290h10v10h-10zM110,290h10v10h-10zM130,290h10v10h-10zM170,290h10v10h-10zM190,290h10v10h-10zM210,290h10v10h-10zM220,290h10v10h-10zM260,290h10v10h-10zM270,290h10v10h-10zM300,290h10v10h-10zM310,290h10v10h-10zM320,290h10v10h-10zM340,290h10v10h-10zM360,290h10v10h-10zM380,290h10v10h-10zM400,290h10v10h-10zM410,290h10v10h-10zM20,300h10v10h-10zM40,300h10v10h-10zM50,300h10v10h-10zM90,300h10v10h-10zM100,300h10v10h-10zM110,300h10v10h-10zM140,300h10v10h-10zM180,300h10v10h-10zM210,300h10v10h-10zM240,300h10v10h-10zM260,300h10v10h-10zM270,300h10v10h-10zM280,300h10v10h-10zM290,300h10v10h-10zM300,300h10v10h-10zM330,300h10v10h-10zM340,300h10v10h-10zM360,300h10v10h-10zM380,300h10v10h-10zM10,310h10v10h-10zM40,310h10v10h-10zM50,310h10v10h-10zM60,310h10v10h-10zM70,310h10v10h-10zM80,310h10v10h-10zM100,310h10v10h-10zM110,310h10v10h-10zM150,310h10v10h-10zM160,310h10v10h-10zM170,310h10v10h-10zM190,310h10v10h-10zM250,310h10v10h-10zM270,310h10v10h-10zM280,310h10v10h-10zM300,310h10v10h-10zM310,310h10v10h-10zM330,310h10v10h-10zM360,310h10v10h-10zM370,310h10v10h-10zM390,310h10v10h-10zM30,320h10v10h-10zM50,320h10v10h-10zM80,320h10v10h-10zM100,320h10v10h-10zM110,320h10v10h-10zM120,320h10v10h-10zM150,320h10v10h-10zM170,320h10v10h-10zM180,320h10v10h-10zM190,320h10v10h-10zM200,320h10v10h-10zM230,320h10v10h-10zM240,320h10v10h-10zM300,320h10v10h-10zM320,320h10v10h-10zM330,320h10v10h-10zM360,320h10v10h-10zM380,320h10v10h-10zM390,320h10v10h-10zM410,320h10v10h-10zM20,330h10v10h-10zM40,330h10v10h-10zM50,330h10v10h-10zM60,330h10v10h-10zM70,330h10v10h-10zM100,330h10v10h-10zM110,330h10v10h-10zM130,330h10v10h-10zM140,330h10v10h-10zM150,330h10v10h-10zM160,330h10v10h-10zM170,330h10v10h-10zM190,330h10v10h-10zM200,330h10v10h-10zM210,330h10v10h-10zM220,330h10v10h-10zM270,330h10v10h-10zM280,330h10v10h-10zM290,330h10v10h-10zM310,330h10v10h-10zM320,330h10v10h-10zM330,330h10v10h-10zM340,330h10v10h-10zM350,330h10v10h-10zM360,330h10v10h-10zM370,330h10v10h-10zM380,330h10v10h-10zM400,330h10v10h-10zM90,340h10v10h-10zM160,340h10v10h-10zM170,340h10v10h-10zM180,340h10v10h-10zM190,340h10v10h-10zM200,340h10v10h-10zM210,340h10v10h-10zM230,340h10v10h-10zM240,340h10v10h-10zM260,340h10v10h-10zM270,340h10v10h-10zM290,340h10v10h-10zM300,340h10v10h-10zM310,340h10v10h-10zM330,340h10v10h-10zM370,340h10v10h-10zM380,340h10v10h-10zM400,340h10v10h-10zM10,350h10v10h-10zM20,350h10v10h-10zM30,350h10v10h-10zM40,350h10v10h-10zM50,350h10v10h-10zM60,350h10v10h-10zM70,350h10v10h-10zM100,350h10v10h-10zM110,350h10v10h-10zM120,350h10v10h-10zM130,350h10v10h-10zM150,350h10v10h-10zM170,350h10v10h-10zM180,350h10v10h-10zM230,350h10v10h-10zM240,350h10v10h-10zM250,350h10v10h-10zM290,350h10v10h-10zM300,350h10v10h-10zM320,350h10v10h-10zM330,350h10v10h-10zM350,350h10v10h-10zM370,350h10v10h-10zM390,350h10v10h-10zM400,350h10v10h-10zM10,360h10v10h-10zM70,360h10v10h-10zM100,360h10v10h-10zM110,360h10v10h-10zM130,360h10v10h-10zM140,360h10v10h-10zM150,360h10v10h-10zM200,360h10v10h-10zM210,360h10v10h-10zM240,360h10v10h-10zM260,360h10v10h-10zM270,360h10v10h-10zM280,360h10v10h-10zM310,360h10v10h-10zM320,360h10v10h-10zM330,360h10v10h-10zM370,360h10v10h-10zM400,360h10v10h-10zM10,370h10v10h-10zM30,370h10v10h-10zM40,370h10v10h-10zM50,370h10v10h-10zM70,370h10v10h-10zM100,370h10v10h-10zM110,370h10v10h-10zM130,370h10v10h-10zM170,370h10v10h-10zM180,370h10v10h-10zM260,370h10v10h-10zM330,370h10v10h-10zM340,370h10v10h-10zM350,370h10v10h-10zM360,370h10v10h-10zM370,370h10v10h-10zM390,370h10v10h-10zM400,370h10v10h-10zM10,380h10v10h-10zM30,380h10v10h-10zM40,380h10v10h-10zM50,380h10v10h-10zM70,380h10v10h-10zM90,380h10v10h-10zM100,380h10v10h-10zM120,380h10v10h-10zM130,380h10v10h-10zM140,380h10v10h-10zM160,380h10v10h-10zM200,380h10v10h-10zM210,380h10v10h-10zM230,380h10v10h-10zM290,380h10v10h-10zM330,380h10v10h-10zM340,380h10v10h-10zM370,380h10v10h-10zM400,380h10v10h-10zM410,380h10v10h-10zM10,390h10v10h-10zM30,390h10v10h-10zM40,390h10v10h-10zM50,390h10v10h-10zM70,390h10v10h-10zM90,390h10v10h-10zM110,390h10v10h-10zM120,390h10v10h-10zM150,390h10v10h-10zM190,390h10v10h-10zM200,390h10v10h-10zM220,390h10v10h-10zM230,390h10v10h-10zM250,390h10v10h-10zM310,390h10v10h-10zM320,390h10v10h-10zM340,390h10v10h-10zM380,390h10v10h-10zM400,390h10v10h-10zM410,390h10v10h-10zM10,400h10v10h-10zM70,400h10v10h-10zM90,400h10v10h-10zM120,400h10v10h-10zM160,400h10v10h-10zM170,400h10v10h-10zM190,400h10v10h-10zM200,400h10v10h-10zM210,400h10v10h-10zM220,400h10v10h-10zM240,400h10v10h-10zM250,400h10v10h-10zM280,400h10v10h-10zM310,400h10v10h-10zM320,400h10v10h-10zM330,400h10v10h-10zM340,400h10v10h-10zM370,400h10v10h-10zM380,400h10v10h-10zM400,400h10v10h-10zM10,410h10v10h-10zM20,410h10v10h-10zM30,410h10v10h-10zM40,410h10v10h-10zM50,410h10v10h-10zM60,410h10v10h-10zM70,410h10v10h-10zM90,410h10v10h-10zM110,410h10v10h-10zM130,410h10v10h-10zM140,410h10v10h-10zM150,410h10v10h-10zM160,410h10v10h-10zM180,410h10v10h-10zM190,410h10v10h-10zM210,410h10v10h-10zM220,410h10v10h-10zM230,410h10v10h-10zM240,410h10v10h-10zM250,410h10v10h-10zM260,410h10v10h-10zM310,410h10v10h-10zM320,410h10v10h-10zM330,410h10v10h-10zM340,410h10v10h-10zM350,410h10v10h-10zM360,410h10v10h-10zM370,410h10v10h-10zM390,410h10v10h-10zM400,410h10v10h-10z"/></svg>
